<mxfile host="app.diagrams.net" modified="2022-11-13T11:58:53.968Z" agent="5.0 (Windows)" etag="reCEYBxOYqi-XFZF1wKh" version="20.5.3" type="github">
  <diagram id="R2lEEEUBdFMjLlhIrx00" name="Page-1">
    <mxGraphModel dx="298" dy="406" grid="1" gridSize="10" guides="1" tooltips="1" connect="1" arrows="1" fold="1" page="1" pageScale="1" pageWidth="850" pageHeight="1100" math="0" shadow="0" extFonts="Permanent Marker^https://fonts.googleapis.com/css?family=Permanent+Marker">
      <root>
        <mxCell id="0" />
        <mxCell id="1" parent="0" />
        <mxCell id="hOHzQhddZe1VjJSK_br0-1" value="КОРИСНИК" style="rounded=0;whiteSpace=wrap;html=1;" vertex="1" parent="1">
          <mxGeometry x="600" y="160" width="80" height="20" as="geometry" />
        </mxCell>
        <mxCell id="hOHzQhddZe1VjJSK_br0-2" value="име-пакет" style="ellipse;whiteSpace=wrap;html=1;" vertex="1" parent="1">
          <mxGeometry x="640" y="410" width="60" height="30" as="geometry" />
        </mxCell>
        <mxCell id="hOHzQhddZe1VjJSK_br0-3" value="презиме" style="ellipse;whiteSpace=wrap;html=1;" vertex="1" parent="1">
          <mxGeometry x="560" y="80" width="60" height="20" as="geometry" />
        </mxCell>
        <mxCell id="hOHzQhddZe1VjJSK_br0-4" value="адреса" style="ellipse;whiteSpace=wrap;html=1;" vertex="1" parent="1">
          <mxGeometry x="660" y="100" width="40" height="20" as="geometry" />
        </mxCell>
        <mxCell id="hOHzQhddZe1VjJSK_br0-5" value="бр" style="ellipse;whiteSpace=wrap;html=1;" vertex="1" parent="1">
          <mxGeometry x="630" y="40" width="40" height="20" as="geometry" />
        </mxCell>
        <mxCell id="hOHzQhddZe1VjJSK_br0-6" value="ул" style="ellipse;whiteSpace=wrap;html=1;" vertex="1" parent="1">
          <mxGeometry x="660" y="20" width="40" height="20" as="geometry" />
        </mxCell>
        <mxCell id="hOHzQhddZe1VjJSK_br0-7" value="гр" style="ellipse;whiteSpace=wrap;html=1;" vertex="1" parent="1">
          <mxGeometry x="690" y="30" width="40" height="20" as="geometry" />
        </mxCell>
        <mxCell id="hOHzQhddZe1VjJSK_br0-11" value="" style="endArrow=none;html=1;rounded=0;entryX=0.5;entryY=1;entryDx=0;entryDy=0;exitX=0;exitY=0;exitDx=0;exitDy=0;" edge="1" parent="1" source="hOHzQhddZe1VjJSK_br0-30" target="hOHzQhddZe1VjJSK_br0-2">
          <mxGeometry width="50" height="50" relative="1" as="geometry">
            <mxPoint x="757.5" y="440" as="sourcePoint" />
            <mxPoint x="987.5" y="410" as="targetPoint" />
          </mxGeometry>
        </mxCell>
        <mxCell id="hOHzQhddZe1VjJSK_br0-12" value="" style="endArrow=none;html=1;rounded=0;entryX=0.5;entryY=1;entryDx=0;entryDy=0;exitX=0.25;exitY=0;exitDx=0;exitDy=0;" edge="1" parent="1" source="hOHzQhddZe1VjJSK_br0-1" target="hOHzQhddZe1VjJSK_br0-3">
          <mxGeometry width="50" height="50" relative="1" as="geometry">
            <mxPoint x="620" y="170" as="sourcePoint" />
            <mxPoint x="560" y="140" as="targetPoint" />
          </mxGeometry>
        </mxCell>
        <mxCell id="hOHzQhddZe1VjJSK_br0-13" value="" style="endArrow=none;html=1;rounded=0;entryX=0.5;entryY=1;entryDx=0;entryDy=0;exitX=0.5;exitY=0;exitDx=0;exitDy=0;" edge="1" parent="1" source="hOHzQhddZe1VjJSK_br0-1" target="hOHzQhddZe1VjJSK_br0-4">
          <mxGeometry width="50" height="50" relative="1" as="geometry">
            <mxPoint x="630" y="170" as="sourcePoint" />
            <mxPoint x="600" y="110" as="targetPoint" />
          </mxGeometry>
        </mxCell>
        <mxCell id="hOHzQhddZe1VjJSK_br0-14" value="" style="endArrow=none;html=1;rounded=0;entryX=0.5;entryY=1;entryDx=0;entryDy=0;exitX=0;exitY=0;exitDx=0;exitDy=0;" edge="1" parent="1" source="hOHzQhddZe1VjJSK_br0-4" target="hOHzQhddZe1VjJSK_br0-5">
          <mxGeometry width="50" height="50" relative="1" as="geometry">
            <mxPoint x="654.5600000000001" y="167.58000000000004" as="sourcePoint" />
            <mxPoint x="682" y="131" as="targetPoint" />
          </mxGeometry>
        </mxCell>
        <mxCell id="hOHzQhddZe1VjJSK_br0-15" value="" style="endArrow=none;html=1;rounded=0;entryX=0.5;entryY=1;entryDx=0;entryDy=0;" edge="1" parent="1" target="hOHzQhddZe1VjJSK_br0-6">
          <mxGeometry width="50" height="50" relative="1" as="geometry">
            <mxPoint x="676" y="100" as="sourcePoint" />
            <mxPoint x="660" y="70" as="targetPoint" />
          </mxGeometry>
        </mxCell>
        <mxCell id="hOHzQhddZe1VjJSK_br0-16" value="" style="endArrow=none;html=1;rounded=0;entryX=0.5;entryY=1;entryDx=0;entryDy=0;exitX=0.5;exitY=0;exitDx=0;exitDy=0;" edge="1" parent="1" source="hOHzQhddZe1VjJSK_br0-4" target="hOHzQhddZe1VjJSK_br0-7">
          <mxGeometry width="50" height="50" relative="1" as="geometry">
            <mxPoint x="686" y="110" as="sourcePoint" />
            <mxPoint x="690" y="50" as="targetPoint" />
          </mxGeometry>
        </mxCell>
        <mxCell id="hOHzQhddZe1VjJSK_br0-17" value="тип" style="ellipse;whiteSpace=wrap;html=1;" vertex="1" parent="1">
          <mxGeometry x="610" y="100" width="40" height="20" as="geometry" />
        </mxCell>
        <mxCell id="hOHzQhddZe1VjJSK_br0-18" value="" style="endArrow=none;html=1;rounded=0;entryX=0.5;entryY=1;entryDx=0;entryDy=0;exitX=0.429;exitY=0.079;exitDx=0;exitDy=0;exitPerimeter=0;" edge="1" parent="1" source="hOHzQhddZe1VjJSK_br0-1" target="hOHzQhddZe1VjJSK_br0-17">
          <mxGeometry width="50" height="50" relative="1" as="geometry">
            <mxPoint x="620" y="160" as="sourcePoint" />
            <mxPoint x="600" y="110" as="targetPoint" />
          </mxGeometry>
        </mxCell>
        <mxCell id="hOHzQhddZe1VjJSK_br0-23" value="број-договор" style="ellipse;whiteSpace=wrap;html=1;" vertex="1" parent="1">
          <mxGeometry x="700" y="240" width="80" height="20" as="geometry" />
        </mxCell>
        <mxCell id="hOHzQhddZe1VjJSK_br0-24" value="датум-почеток" style="ellipse;whiteSpace=wrap;html=1;" vertex="1" parent="1">
          <mxGeometry x="760" y="270" width="70" height="30" as="geometry" />
        </mxCell>
        <mxCell id="hOHzQhddZe1VjJSK_br0-28" value="" style="endArrow=none;html=1;rounded=0;exitX=1;exitY=0;exitDx=0;exitDy=0;entryX=0;entryY=0.5;entryDx=0;entryDy=0;" edge="1" parent="1" source="hOHzQhddZe1VjJSK_br0-48" target="hOHzQhddZe1VjJSK_br0-24">
          <mxGeometry width="50" height="50" relative="1" as="geometry">
            <mxPoint x="655.12" y="189.27999999999997" as="sourcePoint" />
            <mxPoint x="681.8186630532342" y="211.86158255811517" as="targetPoint" />
          </mxGeometry>
        </mxCell>
        <mxCell id="hOHzQhddZe1VjJSK_br0-29" value="" style="endArrow=none;html=1;rounded=0;exitX=0.75;exitY=0;exitDx=0;exitDy=0;entryX=0.419;entryY=0.979;entryDx=0;entryDy=0;entryPerimeter=0;" edge="1" parent="1" source="hOHzQhddZe1VjJSK_br0-48" target="hOHzQhddZe1VjJSK_br0-23">
          <mxGeometry width="50" height="50" relative="1" as="geometry">
            <mxPoint x="729.9999999999993" y="225" as="sourcePoint" />
            <mxPoint x="760" y="230" as="targetPoint" />
          </mxGeometry>
        </mxCell>
        <mxCell id="hOHzQhddZe1VjJSK_br0-30" value="ПАКЕТ" style="rounded=0;whiteSpace=wrap;html=1;" vertex="1" parent="1">
          <mxGeometry x="702.5" y="450" width="80" height="20" as="geometry" />
        </mxCell>
        <mxCell id="hOHzQhddZe1VjJSK_br0-31" value="име" style="ellipse;whiteSpace=wrap;html=1;" vertex="1" parent="1">
          <mxGeometry x="540" y="120" width="40" height="20" as="geometry" />
        </mxCell>
        <mxCell id="hOHzQhddZe1VjJSK_br0-32" value="" style="endArrow=none;html=1;rounded=0;entryX=0.5;entryY=1;entryDx=0;entryDy=0;" edge="1" parent="1" target="hOHzQhddZe1VjJSK_br0-31">
          <mxGeometry width="50" height="50" relative="1" as="geometry">
            <mxPoint x="600" y="160" as="sourcePoint" />
            <mxPoint x="640" y="150" as="targetPoint" />
          </mxGeometry>
        </mxCell>
        <mxCell id="hOHzQhddZe1VjJSK_br0-33" value="МБР" style="ellipse;whiteSpace=wrap;html=1;align=center;fontStyle=4;" vertex="1" parent="1">
          <mxGeometry x="490" y="70" width="50" height="20" as="geometry" />
        </mxCell>
        <mxCell id="hOHzQhddZe1VjJSK_br0-34" value="" style="endArrow=none;html=1;rounded=0;entryX=1;entryY=1;entryDx=0;entryDy=0;exitX=0.125;exitY=0;exitDx=0;exitDy=0;exitPerimeter=0;" edge="1" parent="1" source="hOHzQhddZe1VjJSK_br0-1" target="hOHzQhddZe1VjJSK_br0-33">
          <mxGeometry width="50" height="50" relative="1" as="geometry">
            <mxPoint x="610" y="170" as="sourcePoint" />
            <mxPoint x="570" y="150" as="targetPoint" />
          </mxGeometry>
        </mxCell>
        <mxCell id="hOHzQhddZe1VjJSK_br0-35" value="шифра" style="ellipse;whiteSpace=wrap;html=1;align=center;fontStyle=4;" vertex="1" parent="1">
          <mxGeometry x="830" y="415" width="50" height="20" as="geometry" />
        </mxCell>
        <mxCell id="hOHzQhddZe1VjJSK_br0-36" value="" style="endArrow=none;html=1;rounded=0;entryX=0.5;entryY=1;entryDx=0;entryDy=0;" edge="1" parent="1" target="hOHzQhddZe1VjJSK_br0-35">
          <mxGeometry width="50" height="50" relative="1" as="geometry">
            <mxPoint x="770" y="450" as="sourcePoint" />
            <mxPoint x="857.5" y="470" as="targetPoint" />
          </mxGeometry>
        </mxCell>
        <mxCell id="hOHzQhddZe1VjJSK_br0-56" value="Text" style="edgeLabel;html=1;align=center;verticalAlign=middle;resizable=0;points=[];" vertex="1" connectable="0" parent="hOHzQhddZe1VjJSK_br0-36">
          <mxGeometry x="-0.5112" y="2" relative="1" as="geometry">
            <mxPoint as="offset" />
          </mxGeometry>
        </mxCell>
        <mxCell id="hOHzQhddZe1VjJSK_br0-37" value="претплата" style="ellipse;whiteSpace=wrap;html=1;" vertex="1" parent="1">
          <mxGeometry x="870" y="445" width="60" height="30" as="geometry" />
        </mxCell>
        <mxCell id="hOHzQhddZe1VjJSK_br0-38" value="" style="endArrow=none;html=1;rounded=0;exitX=1;exitY=0.75;exitDx=0;exitDy=0;" edge="1" parent="1" source="hOHzQhddZe1VjJSK_br0-30" target="hOHzQhddZe1VjJSK_br0-37">
          <mxGeometry width="50" height="50" relative="1" as="geometry">
            <mxPoint x="747.22" y="457" as="sourcePoint" />
            <mxPoint x="737.5" y="400" as="targetPoint" />
          </mxGeometry>
        </mxCell>
        <mxCell id="hOHzQhddZe1VjJSK_br0-57" value="Text" style="edgeLabel;html=1;align=center;verticalAlign=middle;resizable=0;points=[];" vertex="1" connectable="0" parent="hOHzQhddZe1VjJSK_br0-38">
          <mxGeometry x="0.5141" y="-3" relative="1" as="geometry">
            <mxPoint as="offset" />
          </mxGeometry>
        </mxCell>
        <mxCell id="hOHzQhddZe1VjJSK_br0-39" value="тип" style="ellipse;whiteSpace=wrap;html=1;" vertex="1" parent="1">
          <mxGeometry x="607.5" y="440" width="40" height="20" as="geometry" />
        </mxCell>
        <mxCell id="hOHzQhddZe1VjJSK_br0-40" value="" style="endArrow=none;html=1;rounded=0;entryX=1;entryY=0.5;entryDx=0;entryDy=0;exitX=0;exitY=0.5;exitDx=0;exitDy=0;" edge="1" parent="1" source="hOHzQhddZe1VjJSK_br0-30" target="hOHzQhddZe1VjJSK_br0-39">
          <mxGeometry width="50" height="50" relative="1" as="geometry">
            <mxPoint x="697.5" y="450" as="sourcePoint" />
            <mxPoint x="707.5" y="440" as="targetPoint" />
          </mxGeometry>
        </mxCell>
        <mxCell id="hOHzQhddZe1VjJSK_br0-41" value="ТЕЛ.БР." style="rounded=0;whiteSpace=wrap;html=1;" vertex="1" parent="1">
          <mxGeometry x="440" y="280" width="80" height="20" as="geometry" />
        </mxCell>
        <mxCell id="hOHzQhddZe1VjJSK_br0-45" value="припаѓа-на" style="shape=rhombus;perimeter=rhombusPerimeter;whiteSpace=wrap;html=1;align=center;" vertex="1" parent="1">
          <mxGeometry x="512.5" y="230" width="95" height="30" as="geometry" />
        </mxCell>
        <mxCell id="hOHzQhddZe1VjJSK_br0-46" value="" style="endArrow=none;html=1;rounded=0;entryX=0.25;entryY=1;entryDx=0;entryDy=0;exitX=0.65;exitY=0.09;exitDx=0;exitDy=0;exitPerimeter=0;" edge="1" parent="1" source="hOHzQhddZe1VjJSK_br0-45" target="hOHzQhddZe1VjJSK_br0-1">
          <mxGeometry width="50" height="50" relative="1" as="geometry">
            <mxPoint x="550" y="270" as="sourcePoint" />
            <mxPoint x="600" y="220" as="targetPoint" />
          </mxGeometry>
        </mxCell>
        <mxCell id="hOHzQhddZe1VjJSK_br0-64" value="1" style="edgeLabel;html=1;align=center;verticalAlign=middle;resizable=0;points=[];" vertex="1" connectable="0" parent="hOHzQhddZe1VjJSK_br0-46">
          <mxGeometry x="0.3864" relative="1" as="geometry">
            <mxPoint as="offset" />
          </mxGeometry>
        </mxCell>
        <mxCell id="hOHzQhddZe1VjJSK_br0-47" value="N" style="endArrow=none;html=1;rounded=0;entryX=0;entryY=1;entryDx=0;entryDy=0;exitX=0.5;exitY=0;exitDx=0;exitDy=0;" edge="1" parent="1" source="hOHzQhddZe1VjJSK_br0-41" target="hOHzQhddZe1VjJSK_br0-45">
          <mxGeometry width="50" height="50" relative="1" as="geometry">
            <mxPoint x="550" y="270" as="sourcePoint" />
            <mxPoint x="600" y="220" as="targetPoint" />
          </mxGeometry>
        </mxCell>
        <mxCell id="hOHzQhddZe1VjJSK_br0-48" value="ДОГОВОР" style="rounded=0;whiteSpace=wrap;html=1;" vertex="1" parent="1">
          <mxGeometry x="660" y="330" width="80" height="20" as="geometry" />
        </mxCell>
        <mxCell id="hOHzQhddZe1VjJSK_br0-49" value="склучен-дог" style="shape=rhombus;perimeter=rhombusPerimeter;whiteSpace=wrap;html=1;align=center;" vertex="1" parent="1">
          <mxGeometry x="540" y="310" width="95" height="30" as="geometry" />
        </mxCell>
        <mxCell id="hOHzQhddZe1VjJSK_br0-53" value="" style="shape=rhombus;perimeter=rhombusPerimeter;whiteSpace=wrap;html=1;align=center;" vertex="1" parent="1">
          <mxGeometry x="720" y="395" width="30" height="20" as="geometry" />
        </mxCell>
        <mxCell id="hOHzQhddZe1VjJSK_br0-59" value="датум-крај" style="ellipse;whiteSpace=wrap;html=1;" vertex="1" parent="1">
          <mxGeometry x="770" y="320" width="70" height="30" as="geometry" />
        </mxCell>
        <mxCell id="hOHzQhddZe1VjJSK_br0-60" value="" style="endArrow=none;html=1;rounded=0;exitX=1;exitY=0.5;exitDx=0;exitDy=0;entryX=0;entryY=0.333;entryDx=0;entryDy=0;entryPerimeter=0;" edge="1" parent="1" source="hOHzQhddZe1VjJSK_br0-48" target="hOHzQhddZe1VjJSK_br0-59">
          <mxGeometry width="50" height="50" relative="1" as="geometry">
            <mxPoint x="750" y="340" as="sourcePoint" />
            <mxPoint x="770" y="295" as="targetPoint" />
          </mxGeometry>
        </mxCell>
        <mxCell id="hOHzQhddZe1VjJSK_br0-67" value="" style="shape=link;html=1;rounded=0;exitX=0.5;exitY=1;exitDx=0;exitDy=0;entryX=0.5;entryY=0;entryDx=0;entryDy=0;" edge="1" parent="1" source="hOHzQhddZe1VjJSK_br0-48" target="hOHzQhddZe1VjJSK_br0-53">
          <mxGeometry relative="1" as="geometry">
            <mxPoint x="540" y="399.76" as="sourcePoint" />
            <mxPoint x="700" y="399.76" as="targetPoint" />
          </mxGeometry>
        </mxCell>
        <mxCell id="hOHzQhddZe1VjJSK_br0-72" value="N" style="edgeLabel;html=1;align=center;verticalAlign=middle;resizable=0;points=[];" vertex="1" connectable="0" parent="hOHzQhddZe1VjJSK_br0-67">
          <mxGeometry x="-0.2586" y="-2" relative="1" as="geometry">
            <mxPoint as="offset" />
          </mxGeometry>
        </mxCell>
        <mxCell id="hOHzQhddZe1VjJSK_br0-70" value="" style="shape=link;html=1;rounded=0;exitX=0.5;exitY=1;exitDx=0;exitDy=0;entryX=0.344;entryY=0;entryDx=0;entryDy=0;entryPerimeter=0;" edge="1" parent="1" source="hOHzQhddZe1VjJSK_br0-53" target="hOHzQhddZe1VjJSK_br0-30">
          <mxGeometry relative="1" as="geometry">
            <mxPoint x="710" y="360" as="sourcePoint" />
            <mxPoint x="737.5" y="395" as="targetPoint" />
          </mxGeometry>
        </mxCell>
        <mxCell id="hOHzQhddZe1VjJSK_br0-73" value="1" style="edgeLabel;html=1;align=center;verticalAlign=middle;resizable=0;points=[];" vertex="1" connectable="0" parent="hOHzQhddZe1VjJSK_br0-70">
          <mxGeometry x="0.271" y="1" relative="1" as="geometry">
            <mxPoint as="offset" />
          </mxGeometry>
        </mxCell>
        <mxCell id="hOHzQhddZe1VjJSK_br0-74" value="" style="shape=link;html=1;rounded=0;exitX=0.75;exitY=1;exitDx=0;exitDy=0;" edge="1" parent="1" source="hOHzQhddZe1VjJSK_br0-41" target="hOHzQhddZe1VjJSK_br0-49">
          <mxGeometry relative="1" as="geometry">
            <mxPoint x="505" y="330" as="sourcePoint" />
            <mxPoint x="540" y="375" as="targetPoint" />
          </mxGeometry>
        </mxCell>
        <mxCell id="hOHzQhddZe1VjJSK_br0-75" value="1" style="edgeLabel;html=1;align=center;verticalAlign=middle;resizable=0;points=[];" vertex="1" connectable="0" parent="hOHzQhddZe1VjJSK_br0-74">
          <mxGeometry x="-0.2586" y="-2" relative="1" as="geometry">
            <mxPoint as="offset" />
          </mxGeometry>
        </mxCell>
        <mxCell id="hOHzQhddZe1VjJSK_br0-76" value="" style="shape=link;html=1;rounded=0;exitX=1;exitY=0.5;exitDx=0;exitDy=0;entryX=0;entryY=0.5;entryDx=0;entryDy=0;" edge="1" parent="1" source="hOHzQhddZe1VjJSK_br0-49" target="hOHzQhddZe1VjJSK_br0-48">
          <mxGeometry relative="1" as="geometry">
            <mxPoint x="510" y="310" as="sourcePoint" />
            <mxPoint x="572.5625" y="327.875" as="targetPoint" />
          </mxGeometry>
        </mxCell>
        <mxCell id="hOHzQhddZe1VjJSK_br0-77" value="N" style="edgeLabel;html=1;align=center;verticalAlign=middle;resizable=0;points=[];" vertex="1" connectable="0" parent="hOHzQhddZe1VjJSK_br0-76">
          <mxGeometry x="-0.2586" y="-2" relative="1" as="geometry">
            <mxPoint as="offset" />
          </mxGeometry>
        </mxCell>
        <mxCell id="hOHzQhddZe1VjJSK_br0-78" value="УСЛУГА" style="rounded=0;whiteSpace=wrap;html=1;" vertex="1" parent="1">
          <mxGeometry x="250" y="160" width="80" height="20" as="geometry" />
        </mxCell>
        <mxCell id="hOHzQhddZe1VjJSK_br0-80" value="мој-круг" style="shape=rhombus;perimeter=rhombusPerimeter;whiteSpace=wrap;html=1;align=center;" vertex="1" parent="1">
          <mxGeometry x="365" y="120" width="60" height="50" as="geometry" />
        </mxCell>
        <mxCell id="hOHzQhddZe1VjJSK_br0-82" value="" style="endArrow=none;html=1;rounded=0;exitX=0.5;exitY=0;exitDx=0;exitDy=0;entryX=0.5;entryY=0;entryDx=0;entryDy=0;" edge="1" parent="1" source="hOHzQhddZe1VjJSK_br0-78" target="hOHzQhddZe1VjJSK_br0-80">
          <mxGeometry width="50" height="50" relative="1" as="geometry">
            <mxPoint x="350" y="200" as="sourcePoint" />
            <mxPoint x="400" y="150" as="targetPoint" />
          </mxGeometry>
        </mxCell>
        <mxCell id="hOHzQhddZe1VjJSK_br0-83" value="" style="endArrow=none;html=1;rounded=0;exitX=1;exitY=0.25;exitDx=0;exitDy=0;entryX=0.5;entryY=1;entryDx=0;entryDy=0;" edge="1" parent="1" source="hOHzQhddZe1VjJSK_br0-78" target="hOHzQhddZe1VjJSK_br0-80">
          <mxGeometry width="50" height="50" relative="1" as="geometry">
            <mxPoint x="300" y="170" as="sourcePoint" />
            <mxPoint x="405" y="130" as="targetPoint" />
          </mxGeometry>
        </mxCell>
      </root>
    </mxGraphModel>
  </diagram>
</mxfile>
